# xmcd
#
# Track frame offsets: 
#        150
#        9334
#        26262
#        45528
#        65594
#        85567
#        108216
#        127726
#        134314
#        152427
#        178984
#        192076
#        213918
#        230442
#        252022
#        275908
#
# Disc length: 3850 seconds
#
# Revision: 0
# Processed by: cddbd v1.5.2PL0 Copyright (c) Steve Scherf et al.
# Submitted via: ExactAudioCopy v0.99pb5
#
DISCID=c70f0810
DTITLE=Keelay and Zaire - Ridin High
DYEAR=2009
DGENRE=Hip-Hop
TTITLE0=The Intro (ft. Gravedigga Jones)
TTITLE1=Take A Ride (ft. Slo Mo, Mario Jones and AV)
TTITLE2=Addicts For Real (ft. Tunji)
TTITLE3=Cali 2 NY (ft. Hassaan Mackey, Rasco, Planet Asia and Slo Mo)
TTITLE4=I Used To Ride (ft. Fortilive and Saafir)
TTITLE5=Wake Up (ft. Emilio Rojas, Slight Knight, AV, Tiffany Paige an
TTITLE5=d Brian Francis)
TTITLE6=I'm On Swerv (ft. Tash, Da Evangillist and E. Jenks)
TTITLE7=Sole Ides Interlude (ft. Slo Mo)
TTITLE8=Alright With Me (ft. Dminor and Phonte)
TTITLE9=The Times (ft. Blu, Fortilive and Nino Moschella)
TTITLE10=Nurf To The Turf (ft. Prophit)
TTITLE11=Trapped (ft. Supastition and Slo Mo)
TTITLE12=We Made It (ft. Mario Jones)
TTITLE13=Beautiful (ft. Surreal and Darrien Brockington)
TTITLE14=Ridin High (ft.FEMI)
TTITLE15=Do What It Do (ft. Nightclubber Lang and Jern Eye)
EXTD=
EXTT0=
EXTT1=
EXTT2=
EXTT3=
EXTT4=
EXTT5=
EXTT6=
EXTT7=
EXTT8=
EXTT9=
EXTT10=
EXTT11=
EXTT12=
EXTT13=
EXTT14=
EXTT15=
PLAYORDER=
